# xmcd
#
# Track frame offsets:
#	150
#	13865
#	27615
#	39543
#	52966
#	64694
#	75014
#	84266
#	99609
#	109476
#	118904
#	130286
#	143368
#	156403
#	169987
#	180751
#	193817
#	208878
#	223379
#	242111
#
# Disc length: 3495 seconds
#
# Revision: 1
# Processed by: cddbd v1.5.2PL0 Copyright (c) Steve Scherf et al.
# Submitted via: audiograbber 1.83.01
#
DISCID=1e0da514
DTITLE=FRANK SINATRA - FRANK SINATRA ONE FOR MY BABY BEST OFF CD 2
DYEAR=1900
DGENRE=Swing
TTITLE0=IN THE WEE SMALL HOURS OF THE MORNING
TTITLE1=LEARNIN' THE BLUES
TTITLE2=LOVE AND MARRIAGE
TTITLE3=THE TENDER TRAP
TTITLE4=YOU AND THE NIGHT AND THE MUSIC
TTITLE5=A FOGGY DAY
TTITLE6=BE CAREFUL, IT'S MY HEART
TTITLE7=IN THE STILL OF THE NIGHT
TTITLE8=A FINE ROMANCE
TTITLE9=WHEN I TAKE MY SUGAR TO TEA
TTITLE10=COME DANCE WITH ME
TTITLE11=WITCHCRAFT
TTITLE12=AUTUMN LEAVES
TTITLE13=BABY WON'T YOU PLEASE COME HOME
TTITLE14=HEY JEALOUS LOVERTraccia 15
TTITLE15=ALL THE WAY
TTITLE16=COME FLY WITH ME
TTITLE17=PUT YOUR DREAMS AWAY
TTITLE18=ONLY THE LONELY
TTITLE19=ONE FOR MY BABY
EXTD=
EXTT0=
EXTT1=
EXTT2=
EXTT3=
EXTT4=
EXTT5=
EXTT6=
EXTT7=
EXTT8=
EXTT9=
EXTT10=
EXTT11=
EXTT12=
EXTT13=
EXTT14=
EXTT15=
EXTT16=
EXTT17=
EXTT18=
EXTT19=
PLAYORDER=
